G75*
%MOIN*%
%OFA0B0*%
%FSLAX25Y25*%
%IPPOS*%
%LPD*%
%AMOC8*
5,1,8,0,0,1.08239X$1,22.5*
%
%ADD10C,0.16000*%
%ADD11OC8,0.07100*%
%ADD12C,0.06000*%
%ADD13C,0.08200*%
%ADD14C,0.04000*%
%ADD15C,0.04123*%
%ADD16R,0.12800X0.12800*%
%ADD17C,0.09800*%
%ADD18C,0.06000*%
%ADD19C,0.07300*%
%ADD20R,0.02800X0.02800*%
%ADD21C,0.03600*%
%ADD22C,0.06800*%
%ADD23C,0.13800*%
%ADD24C,0.00500*%
%ADD25R,0.04762X0.04762*%
%ADD26OC8,0.08400*%
%ADD27OC8,0.10800*%
%ADD28OC8,0.04762*%
D10*
X0021800Y0021800D03*
X0021800Y0321800D03*
X0436800Y0321800D03*
X0436800Y0021800D03*
D11*
X0401800Y0091800D03*
X0391800Y0091800D03*
X0381800Y0091800D03*
X0371800Y0091800D03*
X0371800Y0121800D03*
X0381800Y0121800D03*
X0391800Y0121800D03*
X0401800Y0121800D03*
D12*
X0331800Y0119200D02*
X0331800Y0124400D01*
X0321800Y0124400D02*
X0321800Y0119200D01*
X0311800Y0119200D02*
X0311800Y0124400D01*
X0301800Y0124400D02*
X0301800Y0119200D01*
X0291800Y0119200D02*
X0291800Y0124400D01*
X0281800Y0124400D02*
X0281800Y0119200D01*
X0271800Y0119200D02*
X0271800Y0124400D01*
X0261800Y0124400D02*
X0261800Y0119200D01*
X0251800Y0119200D02*
X0251800Y0124400D01*
X0251800Y0094400D02*
X0251800Y0089200D01*
X0261800Y0089200D02*
X0261800Y0094400D01*
X0271800Y0094400D02*
X0271800Y0089200D01*
X0281800Y0089200D02*
X0281800Y0094400D01*
X0291800Y0094400D02*
X0291800Y0089200D01*
X0301800Y0089200D02*
X0301800Y0094400D01*
X0311800Y0094400D02*
X0311800Y0089200D01*
X0321800Y0089200D02*
X0321800Y0094400D01*
X0331800Y0094400D02*
X0331800Y0089200D01*
X0209400Y0151800D02*
X0204200Y0151800D01*
X0204200Y0161800D02*
X0209400Y0161800D01*
X0209400Y0171800D02*
X0204200Y0171800D01*
X0204200Y0181800D02*
X0209400Y0181800D01*
X0179400Y0181800D02*
X0174200Y0181800D01*
X0174200Y0171800D02*
X0179400Y0171800D01*
X0179400Y0161800D02*
X0174200Y0161800D01*
X0174200Y0151800D02*
X0179400Y0151800D01*
X0176800Y0114400D02*
X0176800Y0109200D01*
X0166800Y0109200D02*
X0166800Y0114400D01*
X0156800Y0114400D02*
X0156800Y0109200D01*
X0146800Y0109200D02*
X0146800Y0114400D01*
X0136800Y0114400D02*
X0136800Y0109200D01*
X0126800Y0109200D02*
X0126800Y0114400D01*
X0116800Y0114400D02*
X0116800Y0109200D01*
X0106800Y0109200D02*
X0106800Y0114400D01*
X0096800Y0114400D02*
X0096800Y0109200D01*
X0086800Y0109200D02*
X0086800Y0114400D01*
X0076800Y0114400D02*
X0076800Y0109200D01*
X0066800Y0109200D02*
X0066800Y0114400D01*
X0066800Y0084400D02*
X0066800Y0079200D01*
X0076800Y0079200D02*
X0076800Y0084400D01*
X0086800Y0084400D02*
X0086800Y0079200D01*
X0096800Y0079200D02*
X0096800Y0084400D01*
X0106800Y0084400D02*
X0106800Y0079200D01*
X0116800Y0079200D02*
X0116800Y0084400D01*
X0126800Y0084400D02*
X0126800Y0079200D01*
X0136800Y0079200D02*
X0136800Y0084400D01*
X0146800Y0084400D02*
X0146800Y0079200D01*
X0156800Y0079200D02*
X0156800Y0084400D01*
X0166800Y0084400D02*
X0166800Y0079200D01*
X0176800Y0079200D02*
X0176800Y0084400D01*
X0186800Y0084400D02*
X0186800Y0079200D01*
X0196800Y0079200D02*
X0196800Y0084400D01*
X0196800Y0109200D02*
X0196800Y0114400D01*
X0186800Y0114400D02*
X0186800Y0109200D01*
D13*
X0221800Y0066800D03*
X0231800Y0066800D03*
X0211800Y0046800D03*
X0211800Y0036800D03*
X0116800Y0026800D03*
X0086800Y0026800D03*
X0041800Y0051800D03*
X0042800Y0061800D03*
X0041800Y0071800D03*
X0042800Y0081800D03*
X0041800Y0091800D03*
X0042800Y0101800D03*
X0046800Y0166800D03*
X0056800Y0166800D03*
X0051800Y0211800D03*
X0061800Y0211800D03*
X0049000Y0232900D03*
X0049000Y0250700D03*
X0074600Y0250700D03*
X0074600Y0232900D03*
X0124000Y0230700D03*
X0149600Y0230700D03*
X0149600Y0212900D03*
X0124000Y0212900D03*
X0379000Y0055700D03*
X0379000Y0037900D03*
X0404600Y0037900D03*
X0404600Y0055700D03*
X0391800Y0136800D03*
X0381800Y0136800D03*
D14*
X0246800Y0051800D03*
X0241800Y0036800D03*
X0181800Y0056800D03*
X0151800Y0136800D03*
X0151800Y0151800D03*
X0121800Y0166800D03*
X0121800Y0181800D03*
X0071800Y0191800D03*
X0071800Y0141800D03*
X0161800Y0231800D03*
X0046800Y0026800D03*
D15*
X0076800Y0026800D03*
X0181800Y0026800D03*
X0271800Y0036800D03*
X0276800Y0051800D03*
X0151800Y0166800D03*
X0151800Y0181800D03*
X0121800Y0151800D03*
X0121800Y0136800D03*
X0041800Y0141800D03*
X0041800Y0191800D03*
X0191800Y0231800D03*
D16*
X0430800Y0230800D03*
X0430800Y0179800D03*
D17*
X0381800Y0249800D03*
X0275800Y0249800D03*
X0328800Y0161800D03*
D18*
X0326300Y0056800D03*
X0307300Y0056800D03*
X0161300Y0051800D03*
X0142300Y0051800D03*
D19*
X0145800Y0033800D03*
X0135800Y0033800D03*
X0117800Y0040800D03*
X0117800Y0050800D03*
X0301800Y0036800D03*
X0311800Y0036800D03*
X0326800Y0036800D03*
X0336800Y0036800D03*
X0111800Y0206800D03*
X0101800Y0206800D03*
X0091800Y0216800D03*
X0081800Y0216800D03*
X0091800Y0231800D03*
X0101800Y0231800D03*
X0096800Y0246800D03*
X0086800Y0246800D03*
X0081800Y0261800D03*
X0091800Y0261800D03*
X0091800Y0276800D03*
X0081800Y0276800D03*
D20*
X0036800Y0251800D03*
X0086800Y0191800D03*
X0036800Y0126800D03*
X0091800Y0056800D03*
X0191800Y0046800D03*
X0196800Y0066800D03*
X0251800Y0066800D03*
X0221800Y0116800D03*
X0196800Y0126800D03*
D21*
X0201800Y0216800D03*
X0171800Y0216800D03*
X0171800Y0216800D03*
X0156800Y0266800D03*
X0186800Y0266800D03*
X0186800Y0266800D03*
D22*
X0136800Y0259800D02*
X0136800Y0253800D01*
X0126800Y0253800D02*
X0126800Y0259800D01*
X0116800Y0259800D02*
X0116800Y0253800D01*
D23*
X0126800Y0315800D03*
D24*
X0169735Y0287897D02*
X0169519Y0287565D01*
X0169381Y0287193D01*
X0169330Y0286800D01*
X0169385Y0286402D01*
X0169528Y0286026D01*
X0169750Y0285691D01*
X0170041Y0285414D01*
X0170387Y0285208D01*
X0170770Y0285085D01*
X0171170Y0285050D01*
X0171550Y0285102D01*
X0171908Y0285237D01*
X0172228Y0285448D01*
X0172492Y0285725D01*
X0172688Y0286054D01*
X0172806Y0286418D01*
X0172840Y0286800D01*
X0172800Y0287184D01*
X0172676Y0287550D01*
X0172473Y0287879D01*
X0172202Y0288154D01*
X0171877Y0288363D01*
X0171513Y0288493D01*
X0171130Y0288540D01*
X0170735Y0288502D01*
X0170359Y0288377D01*
X0170020Y0288172D01*
X0169735Y0287897D01*
X0169832Y0287990D02*
X0172364Y0287990D01*
X0172696Y0287492D02*
X0169492Y0287492D01*
X0169355Y0286993D02*
X0172820Y0286993D01*
X0172813Y0286495D02*
X0169372Y0286495D01*
X0169547Y0285996D02*
X0172654Y0285996D01*
X0172275Y0285498D02*
X0169953Y0285498D01*
X0170695Y0288489D02*
X0171526Y0288489D01*
X0180101Y0287233D02*
X0180239Y0287605D01*
X0180455Y0287937D01*
X0180740Y0288212D01*
X0181079Y0288418D01*
X0181455Y0288542D01*
X0181850Y0288580D01*
X0182233Y0288533D01*
X0182597Y0288403D01*
X0182922Y0288194D01*
X0183193Y0287919D01*
X0183396Y0287590D01*
X0183520Y0287224D01*
X0183560Y0286840D01*
X0183526Y0286459D01*
X0183408Y0286094D01*
X0183212Y0285765D01*
X0182948Y0285488D01*
X0182628Y0285277D01*
X0182270Y0285142D01*
X0181890Y0285090D01*
X0181490Y0285125D01*
X0181107Y0285248D01*
X0180761Y0285454D01*
X0180470Y0285731D01*
X0180248Y0286066D01*
X0180105Y0286442D01*
X0180050Y0286840D01*
X0180101Y0287233D01*
X0180070Y0286993D02*
X0183544Y0286993D01*
X0183530Y0286495D02*
X0180098Y0286495D01*
X0180294Y0285996D02*
X0183350Y0285996D01*
X0182957Y0285498D02*
X0180715Y0285498D01*
X0180197Y0287492D02*
X0183429Y0287492D01*
X0183123Y0287990D02*
X0180510Y0287990D01*
X0181294Y0288489D02*
X0182358Y0288489D01*
X0190801Y0287203D02*
X0190938Y0287575D01*
X0191155Y0287907D01*
X0191440Y0288183D01*
X0191779Y0288388D01*
X0192155Y0288512D01*
X0192550Y0288550D01*
X0192933Y0288504D01*
X0193297Y0288373D01*
X0193622Y0288165D01*
X0193893Y0287889D01*
X0194095Y0287560D01*
X0194220Y0287194D01*
X0194260Y0286810D01*
X0194226Y0286429D01*
X0194108Y0286064D01*
X0193912Y0285735D01*
X0193647Y0285458D01*
X0193328Y0285247D01*
X0192969Y0285112D01*
X0192590Y0285060D01*
X0192189Y0285095D01*
X0191807Y0285219D01*
X0191461Y0285424D01*
X0191170Y0285701D01*
X0190947Y0286036D01*
X0190805Y0286412D01*
X0190750Y0286810D01*
X0190801Y0287203D01*
X0190774Y0286993D02*
X0194241Y0286993D01*
X0194232Y0286495D02*
X0190794Y0286495D01*
X0190974Y0285996D02*
X0194067Y0285996D01*
X0193685Y0285498D02*
X0191383Y0285498D01*
X0190907Y0287492D02*
X0194119Y0287492D01*
X0193793Y0287990D02*
X0191241Y0287990D01*
X0192084Y0288489D02*
X0192974Y0288489D01*
D25*
X0136800Y0161800D03*
X0151800Y0121800D03*
X0141800Y0096800D03*
X0126800Y0096800D03*
X0121800Y0091800D03*
X0091800Y0046800D03*
X0056800Y0046800D03*
X0226800Y0126800D03*
X0231800Y0136800D03*
X0241800Y0126800D03*
X0231800Y0111800D03*
X0256800Y0101800D03*
X0271800Y0076800D03*
X0271800Y0066800D03*
X0301800Y0101800D03*
X0326800Y0131800D03*
X0341800Y0131800D03*
X0341800Y0081800D03*
X0341800Y0066800D03*
X0351800Y0056800D03*
X0376800Y0076800D03*
D26*
X0196800Y0066800D03*
X0191800Y0046800D03*
D27*
X0251800Y0066800D03*
X0221800Y0116800D03*
X0196800Y0126800D03*
X0091800Y0056800D03*
X0036800Y0126800D03*
X0036800Y0251800D03*
D28*
X0221800Y0076800D03*
X0256800Y0076800D03*
M02*
