%
M48
M72
T01C0.02362
T02C0.02756
T03C0.03200
T04C0.03543
T05C0.04000
T06C0.08000
T07C0.09000
T08C0.13000
T09C0.15200
%
T01
X56800Y46800
X91800Y46800
X91800Y56800
X121800Y91800
X126800Y96800
X141800Y96800
X151800Y121800
X196800Y126800
X221800Y116800
X231800Y111800
X226800Y126800
X231800Y136800
X241800Y126800
X256800Y101800
X256800Y76800
X251800Y66800
X271800Y66800
X271800Y76800
X301800Y101800
X326800Y131800
X341800Y131800
X341800Y81800
X341800Y66800
X351800Y56800
X376800Y76800
X221800Y76800
X196800Y66800
X191800Y46800
X36800Y126800
X136800Y161800
X36800Y251800
T02
X81800Y261800
X91800Y261800
X91800Y276800
X81800Y276800
X86800Y246800
X96800Y246800
X91800Y231800
X101800Y231800
X91800Y216800
X81800Y216800
X101800Y206800
X111800Y206800
X117800Y50800
X117800Y40800
X135800Y33800
X145800Y33800
X301800Y36800
X311800Y36800
X326800Y36800
X336800Y36800
T03
X326300Y56800
X307300Y56800
X311800Y91800
X301800Y91800
X291800Y91800
X281800Y91800
X271800Y91800
X261800Y91800
X251800Y91800
X251800Y121800
X261800Y121800
X271800Y121800
X281800Y121800
X291800Y121800
X301800Y121800
X311800Y121800
X321800Y121800
X331800Y121800
X331800Y91800
X321800Y91800
X371800Y91800
X381800Y91800
X391800Y91800
X401800Y91800
X401800Y121800
X391800Y121800
X381800Y121800
X371800Y121800
X231800Y66800
X221800Y66800
X211800Y46800
X211800Y36800
X161300Y51800
X142300Y51800
X146800Y81800
X156800Y81800
X166800Y81800
X176800Y81800
X186800Y81800
X196800Y81800
X196800Y111800
X186800Y111800
X176800Y111800
X166800Y111800
X156800Y111800
X146800Y111800
X136800Y111800
X126800Y111800
X116800Y111800
X106800Y111800
X96800Y111800
X86800Y111800
X76800Y111800
X66800Y111800
X66800Y81800
X76800Y81800
X86800Y81800
X96800Y81800
X106800Y81800
X116800Y81800
X126800Y81800
X136800Y81800
X176800Y151800
X176800Y161800
X176800Y171800
X176800Y181800
X206800Y181800
X206800Y171800
X206800Y161800
X206800Y151800
X61800Y211800
X51800Y211800
X46800Y166800
X56800Y166800
T04
X41800Y191800
X71800Y191800
X121800Y181800
X121800Y166800
X121800Y151800
X121800Y136800
X151800Y136800
X151800Y151800
X151800Y166800
X151800Y181800
X171800Y216800
X161800Y231800
X191800Y231800
X201800Y216800
X186800Y266800
X156800Y266800
X71800Y141800
X41800Y141800
X181800Y56800
X181800Y26800
X241800Y36800
X246800Y51800
X271800Y36800
X276800Y51800
X116800Y26800
X86800Y26800
X76800Y26800
X46800Y26800
T05
X41800Y51800
X42800Y61800
X41800Y71800
X42800Y81800
X41800Y91800
X42800Y101800
X124000Y212900
X149600Y212900
X149600Y230700
X124000Y230700
X126800Y256800
X116800Y256800
X136800Y256800
X171100Y286800
X181800Y286800
X192500Y286800
X74600Y250700
X74600Y232900
X49000Y232900
X49000Y250700
X379000Y55700
X379000Y37900
X404600Y37900
X404600Y55700
X391800Y136800
X381800Y136800
T06
X430800Y179800
X430800Y230800
T07
X381800Y249800
X275800Y249800
X328800Y161800
T08
X126800Y315800
T09
X21800Y21800
X21800Y321800
X436800Y321800
X436800Y21800
M30
