G75*
%MOIN*%
%OFA0B0*%
%FSLAX25Y25*%
%IPPOS*%
%LPD*%
%AMOC8*
5,1,8,0,0,1.08239X$1,22.5*
%
%ADD10C,0.16000*%
%ADD11OC8,0.07100*%
%ADD12C,0.06000*%
%ADD13C,0.08200*%
%ADD14C,0.08062*%
%ADD15C,0.08246*%
%ADD16R,0.12800X0.12800*%
%ADD17C,0.09800*%
%ADD18C,0.06000*%
%ADD19C,0.07300*%
%ADD20C,0.07400*%
%ADD21C,0.06800*%
%ADD22C,0.13800*%
%ADD23C,0.00500*%
%ADD24R,0.04762X0.04762*%
%ADD25OC8,0.08400*%
%ADD26OC8,0.10800*%
%ADD27OC8,0.04762*%
D10*
X0021800Y0021800D03*
X0021800Y0321800D03*
X0436800Y0321800D03*
X0436800Y0021800D03*
D11*
X0401800Y0091800D03*
X0391800Y0091800D03*
X0381800Y0091800D03*
X0371800Y0091800D03*
X0371800Y0121800D03*
X0381800Y0121800D03*
X0391800Y0121800D03*
X0401800Y0121800D03*
D12*
X0331800Y0119200D02*
X0331800Y0124400D01*
X0321800Y0124400D02*
X0321800Y0119200D01*
X0311800Y0119200D02*
X0311800Y0124400D01*
X0301800Y0124400D02*
X0301800Y0119200D01*
X0291800Y0119200D02*
X0291800Y0124400D01*
X0281800Y0124400D02*
X0281800Y0119200D01*
X0271800Y0119200D02*
X0271800Y0124400D01*
X0261800Y0124400D02*
X0261800Y0119200D01*
X0251800Y0119200D02*
X0251800Y0124400D01*
X0251800Y0094400D02*
X0251800Y0089200D01*
X0261800Y0089200D02*
X0261800Y0094400D01*
X0271800Y0094400D02*
X0271800Y0089200D01*
X0281800Y0089200D02*
X0281800Y0094400D01*
X0291800Y0094400D02*
X0291800Y0089200D01*
X0301800Y0089200D02*
X0301800Y0094400D01*
X0311800Y0094400D02*
X0311800Y0089200D01*
X0321800Y0089200D02*
X0321800Y0094400D01*
X0331800Y0094400D02*
X0331800Y0089200D01*
X0209400Y0151800D02*
X0204200Y0151800D01*
X0204200Y0161800D02*
X0209400Y0161800D01*
X0209400Y0171800D02*
X0204200Y0171800D01*
X0204200Y0181800D02*
X0209400Y0181800D01*
X0179400Y0181800D02*
X0174200Y0181800D01*
X0174200Y0171800D02*
X0179400Y0171800D01*
X0179400Y0161800D02*
X0174200Y0161800D01*
X0174200Y0151800D02*
X0179400Y0151800D01*
X0176800Y0114400D02*
X0176800Y0109200D01*
X0166800Y0109200D02*
X0166800Y0114400D01*
X0156800Y0114400D02*
X0156800Y0109200D01*
X0146800Y0109200D02*
X0146800Y0114400D01*
X0136800Y0114400D02*
X0136800Y0109200D01*
X0126800Y0109200D02*
X0126800Y0114400D01*
X0116800Y0114400D02*
X0116800Y0109200D01*
X0106800Y0109200D02*
X0106800Y0114400D01*
X0096800Y0114400D02*
X0096800Y0109200D01*
X0086800Y0109200D02*
X0086800Y0114400D01*
X0076800Y0114400D02*
X0076800Y0109200D01*
X0066800Y0109200D02*
X0066800Y0114400D01*
X0066800Y0084400D02*
X0066800Y0079200D01*
X0076800Y0079200D02*
X0076800Y0084400D01*
X0086800Y0084400D02*
X0086800Y0079200D01*
X0096800Y0079200D02*
X0096800Y0084400D01*
X0106800Y0084400D02*
X0106800Y0079200D01*
X0116800Y0079200D02*
X0116800Y0084400D01*
X0126800Y0084400D02*
X0126800Y0079200D01*
X0136800Y0079200D02*
X0136800Y0084400D01*
X0146800Y0084400D02*
X0146800Y0079200D01*
X0156800Y0079200D02*
X0156800Y0084400D01*
X0166800Y0084400D02*
X0166800Y0079200D01*
X0176800Y0079200D02*
X0176800Y0084400D01*
X0186800Y0084400D02*
X0186800Y0079200D01*
X0196800Y0079200D02*
X0196800Y0084400D01*
X0196800Y0109200D02*
X0196800Y0114400D01*
X0186800Y0114400D02*
X0186800Y0109200D01*
D13*
X0221800Y0066800D03*
X0231800Y0066800D03*
X0211800Y0046800D03*
X0211800Y0036800D03*
X0116800Y0026800D03*
X0086800Y0026800D03*
X0041800Y0051800D03*
X0042800Y0061800D03*
X0041800Y0071800D03*
X0042800Y0081800D03*
X0041800Y0091800D03*
X0042800Y0101800D03*
X0046800Y0166800D03*
X0056800Y0166800D03*
X0051800Y0211800D03*
X0061800Y0211800D03*
X0049000Y0232900D03*
X0049000Y0250700D03*
X0074600Y0250700D03*
X0074600Y0232900D03*
X0124000Y0230700D03*
X0149600Y0230700D03*
X0149600Y0212900D03*
X0124000Y0212900D03*
X0379000Y0055700D03*
X0379000Y0037900D03*
X0404600Y0037900D03*
X0404600Y0055700D03*
X0391800Y0136800D03*
X0381800Y0136800D03*
D14*
X0246800Y0051800D03*
X0241800Y0036800D03*
X0181800Y0056800D03*
X0151800Y0136800D03*
X0151800Y0151800D03*
X0121800Y0166800D03*
X0121800Y0181800D03*
X0071800Y0191800D03*
X0071800Y0141800D03*
X0161800Y0231800D03*
X0046800Y0026800D03*
D15*
X0076800Y0026800D03*
X0181800Y0026800D03*
X0271800Y0036800D03*
X0276800Y0051800D03*
X0151800Y0166800D03*
X0151800Y0181800D03*
X0121800Y0151800D03*
X0121800Y0136800D03*
X0041800Y0141800D03*
X0041800Y0191800D03*
X0191800Y0231800D03*
D16*
X0430800Y0230800D03*
X0430800Y0179800D03*
D17*
X0381800Y0249800D03*
X0275800Y0249800D03*
X0328800Y0161800D03*
D18*
X0326300Y0056800D03*
X0307300Y0056800D03*
X0161300Y0051800D03*
X0142300Y0051800D03*
D19*
X0145800Y0033800D03*
X0135800Y0033800D03*
X0117800Y0040800D03*
X0117800Y0050800D03*
X0301800Y0036800D03*
X0311800Y0036800D03*
X0326800Y0036800D03*
X0336800Y0036800D03*
X0111800Y0206800D03*
X0101800Y0206800D03*
X0091800Y0216800D03*
X0081800Y0216800D03*
X0091800Y0231800D03*
X0101800Y0231800D03*
X0096800Y0246800D03*
X0086800Y0246800D03*
X0081800Y0261800D03*
X0091800Y0261800D03*
X0091800Y0276800D03*
X0081800Y0276800D03*
D20*
X0156800Y0266800D03*
X0186800Y0266800D03*
X0171800Y0216800D03*
X0201800Y0216800D03*
D21*
X0136800Y0253800D02*
X0136800Y0259800D01*
X0126800Y0259800D02*
X0126800Y0253800D01*
X0116800Y0253800D02*
X0116800Y0259800D01*
D22*
X0126800Y0315800D03*
D23*
X0168267Y0288720D02*
X0168705Y0289244D01*
X0169238Y0289672D01*
X0169843Y0289988D01*
X0170499Y0290180D01*
X0171180Y0290240D01*
X0171850Y0290161D01*
X0172491Y0289952D01*
X0173080Y0289622D01*
X0173592Y0289183D01*
X0174010Y0288653D01*
X0174316Y0288052D01*
X0174498Y0287403D01*
X0174550Y0286730D01*
X0174487Y0286070D01*
X0174297Y0285436D01*
X0173986Y0284850D01*
X0173567Y0284337D01*
X0173056Y0283915D01*
X0172473Y0283601D01*
X0171839Y0283407D01*
X0171180Y0283341D01*
X0170499Y0283401D01*
X0169844Y0283592D01*
X0169238Y0283908D01*
X0168706Y0284336D01*
X0168267Y0284860D01*
X0167939Y0285459D01*
X0167734Y0286111D01*
X0167660Y0286790D01*
X0167734Y0287469D01*
X0167938Y0288121D01*
X0168267Y0288720D01*
X0168140Y0288489D02*
X0174093Y0288489D01*
X0174333Y0287990D02*
X0167897Y0287990D01*
X0167741Y0287492D02*
X0174473Y0287492D01*
X0174530Y0286993D02*
X0167682Y0286993D01*
X0167692Y0286495D02*
X0174528Y0286495D01*
X0174465Y0285996D02*
X0167770Y0285996D01*
X0167927Y0285498D02*
X0174316Y0285498D01*
X0174065Y0284999D02*
X0168191Y0284999D01*
X0168568Y0284501D02*
X0173701Y0284501D01*
X0173162Y0284002D02*
X0169121Y0284002D01*
X0170147Y0283504D02*
X0172154Y0283504D01*
X0178614Y0285512D02*
X0178410Y0286173D01*
X0178340Y0286860D01*
X0178417Y0287529D01*
X0178622Y0288171D01*
X0178949Y0288760D01*
X0179385Y0289273D01*
X0179912Y0289692D01*
X0180511Y0290000D01*
X0181159Y0290185D01*
X0181830Y0290241D01*
X0182502Y0290168D01*
X0183146Y0289965D01*
X0183739Y0289641D01*
X0184256Y0289207D01*
X0184680Y0288680D01*
X0184992Y0288081D01*
X0185181Y0287433D01*
X0185240Y0286760D01*
X0185180Y0286099D01*
X0184992Y0285463D01*
X0184684Y0284875D01*
X0184266Y0284359D01*
X0183756Y0283934D01*
X0183173Y0283617D01*
X0182540Y0283420D01*
X0181880Y0283350D01*
X0181192Y0283415D01*
X0180530Y0283613D01*
X0179919Y0283936D01*
X0179383Y0284372D01*
X0178942Y0284904D01*
X0178614Y0285512D01*
X0178622Y0285498D02*
X0185002Y0285498D01*
X0185150Y0285996D02*
X0178465Y0285996D01*
X0178377Y0286495D02*
X0185216Y0286495D01*
X0185220Y0286993D02*
X0178355Y0286993D01*
X0178412Y0287492D02*
X0185164Y0287492D01*
X0185018Y0287990D02*
X0178564Y0287990D01*
X0178799Y0288489D02*
X0184779Y0288489D01*
X0184433Y0288987D02*
X0179142Y0288987D01*
X0179652Y0289486D02*
X0183924Y0289486D01*
X0183085Y0289984D02*
X0180480Y0289984D01*
X0178891Y0284999D02*
X0184749Y0284999D01*
X0184381Y0284501D02*
X0179276Y0284501D01*
X0179837Y0284002D02*
X0183838Y0284002D01*
X0182808Y0283504D02*
X0180896Y0283504D01*
X0189154Y0285996D02*
X0195868Y0285996D01*
X0195903Y0286116D02*
X0195717Y0285476D01*
X0195409Y0284884D01*
X0194992Y0284364D01*
X0194482Y0283935D01*
X0193898Y0283614D01*
X0193262Y0283413D01*
X0192600Y0283340D01*
X0191908Y0283402D01*
X0191242Y0283598D01*
X0190627Y0283920D01*
X0190087Y0284356D01*
X0189642Y0284888D01*
X0189310Y0285498D01*
X0189103Y0286160D01*
X0189030Y0286850D01*
X0189111Y0287531D01*
X0189324Y0288182D01*
X0189660Y0288779D01*
X0190106Y0289300D01*
X0190645Y0289723D01*
X0191257Y0290033D01*
X0191917Y0290218D01*
X0192600Y0290270D01*
X0193267Y0290192D01*
X0193906Y0289985D01*
X0194492Y0289657D01*
X0195003Y0289221D01*
X0195419Y0288694D01*
X0195725Y0288096D01*
X0195907Y0287449D01*
X0195960Y0286780D01*
X0195903Y0286116D01*
X0195936Y0286495D02*
X0189068Y0286495D01*
X0189047Y0286993D02*
X0195943Y0286993D01*
X0195895Y0287492D02*
X0189107Y0287492D01*
X0189262Y0287990D02*
X0195755Y0287990D01*
X0195524Y0288489D02*
X0189497Y0288489D01*
X0189838Y0288987D02*
X0195188Y0288987D01*
X0194693Y0289486D02*
X0190343Y0289486D01*
X0191161Y0289984D02*
X0193907Y0289984D01*
X0195723Y0285498D02*
X0189310Y0285498D01*
X0189582Y0284999D02*
X0195469Y0284999D01*
X0195102Y0284501D02*
X0189966Y0284501D01*
X0190525Y0284002D02*
X0194562Y0284002D01*
X0193548Y0283504D02*
X0191563Y0283504D01*
X0173747Y0288987D02*
X0168490Y0288987D01*
X0169006Y0289486D02*
X0173239Y0289486D01*
X0172392Y0289984D02*
X0169836Y0289984D01*
D24*
X0136800Y0161800D03*
X0151800Y0121800D03*
X0141800Y0096800D03*
X0126800Y0096800D03*
X0121800Y0091800D03*
X0091800Y0046800D03*
X0056800Y0046800D03*
X0226800Y0126800D03*
X0231800Y0136800D03*
X0241800Y0126800D03*
X0231800Y0111800D03*
X0256800Y0101800D03*
X0271800Y0076800D03*
X0271800Y0066800D03*
X0301800Y0101800D03*
X0326800Y0131800D03*
X0341800Y0131800D03*
X0341800Y0081800D03*
X0341800Y0066800D03*
X0351800Y0056800D03*
X0376800Y0076800D03*
D25*
X0196800Y0066800D03*
X0191800Y0046800D03*
D26*
X0251800Y0066800D03*
X0221800Y0116800D03*
X0196800Y0126800D03*
X0091800Y0056800D03*
X0036800Y0126800D03*
X0036800Y0251800D03*
D27*
X0221800Y0076800D03*
X0256800Y0076800D03*
M02*
